<svg id="Group_437" data-name="Group 437" xmlns="http://www.w3.org/2000/svg" xmlns:xlink="http://www.w3.org/1999/xlink" width="18" height="13.07" viewBox="0 0 18 13.07">
  <defs>
    <clipPath id="clip-path">
      <rect id="Rectangle_352" data-name="Rectangle 352" width="18" height="13.07" fill="#fff"/>
    </clipPath>
  </defs>
  <g id="Group_433" data-name="Group 433" transform="translate(0 0)" clip-path="url(#clip-path)">
    <path id="Path_99" data-name="Path 99" d="M3.764,13.07a2.345,2.345,0,0,1-1.708-.7,2.316,2.316,0,0,1-.706-1.718H0V0H13.07V3.416h2.148L18,7.118v3.539H16.548a2.316,2.316,0,0,1-.706,1.718,2.445,2.445,0,0,1-3.416,0,2.316,2.316,0,0,1-.706-1.718H6.177a2.316,2.316,0,0,1-.706,1.718,2.345,2.345,0,0,1-1.708.7m0-1.227a1.186,1.186,0,1,0-.839-2.025,1.186,1.186,0,0,0,.839,2.025m10.37,0A1.187,1.187,0,1,0,13.3,11.5a1.143,1.143,0,0,0,.839.348M13.07,7.67h3.8L14.6,4.643H13.07Z" transform="translate(0 0)" fill="#fff"/>
  </g>
</svg>
