<svg id="Group_434" data-name="Group 434" xmlns="http://www.w3.org/2000/svg" xmlns:xlink="http://www.w3.org/1999/xlink" width="19" height="13.797" viewBox="0 0 19 13.797">
  <defs>
    <clipPath id="clip-path">
      <rect id="Rectangle_352" data-name="Rectangle 352" width="19" height="13.797" fill="none"/>
    </clipPath>
  </defs>
  <g id="Group_433" data-name="Group 433" transform="translate(0 0)" clip-path="url(#clip-path)">
    <path id="Path_99" data-name="Path 99" d="M3.973,13.8a2.475,2.475,0,0,1-1.8-.734,2.445,2.445,0,0,1-.745-1.814H0V0H13.8V3.606h2.267L19,7.514v3.735H17.467a2.445,2.445,0,0,1-.745,1.814,2.581,2.581,0,0,1-3.606,0,2.445,2.445,0,0,1-.745-1.814H6.52a2.445,2.445,0,0,1-.745,1.814,2.475,2.475,0,0,1-1.8.734m0-1.3a1.252,1.252,0,1,0-.885-2.138A1.252,1.252,0,0,0,3.973,12.5m10.947,0a1.253,1.253,0,1,0-.885-.367,1.206,1.206,0,0,0,.885.367M13.8,8.1h4.016l-2.4-3.2H13.8Z" transform="translate(0 0)" fill="#231f20"/>
  </g>
</svg>
