<svg xmlns="http://www.w3.org/2000/svg" xmlns:xlink="http://www.w3.org/1999/xlink" width="19" height="17.142" viewBox="0 0 19 17.142">
  <defs>
    <clipPath id="clip-path">
      <rect id="Rectangle_354" data-name="Rectangle 354" width="19" height="17.142" fill="none"/>
    </clipPath>
  </defs>
  <g id="Group_442" data-name="Group 442" transform="translate(0 0)">
    <g id="Group_441" data-name="Group 441" transform="translate(0 0)" clip-path="url(#clip-path)">
      <path id="Path_103" data-name="Path 103" d="M10.036,13.588a4.862,4.862,0,0,1,.4-1.942,5,5,0,0,1,2.641-2.641,4.955,4.955,0,0,1,3.883,0,5.04,5.04,0,0,1,1.576,1.065,4.935,4.935,0,0,1,.446.52V7.1H19V0H0V15.2H6.959v0h3.35a4.9,4.9,0,0,1-.273-1.609M1.425,3.8h16.15V7.1H1.425Z" transform="translate(0 0)" fill="#231f20"/>
      <path id="Path_104" data-name="Path 104" d="M27.682,28.232a3.437,3.437,0,0,1-1.377-.28,3.583,3.583,0,0,1-1.9-1.9,3.53,3.53,0,0,1,0-2.755,3.58,3.58,0,0,1,1.9-1.9,3.524,3.524,0,0,1,2.755,0,3.577,3.577,0,0,1,1.9,1.9,3.524,3.524,0,0,1,0,2.755,3.58,3.58,0,0,1-1.9,1.9,3.439,3.439,0,0,1-1.377.28m1.306-1.839.4-.4-1.413-1.422V22.786h-.533v2Z" transform="translate(-12.667 -11.09)" fill="#231f20"/>
    </g>
  </g>
</svg>
