<svg id="Group_239" data-name="Group 239" xmlns="http://www.w3.org/2000/svg" xmlns:xlink="http://www.w3.org/1999/xlink" width="43.68" height="19.316" viewBox="0 0 43.68 19.316">
  <defs>
    <clipPath id="clip-path">
      <rect id="Rectangle_233" data-name="Rectangle 233" width="43.679" height="19.316" fill="none"/>
    </clipPath>
  </defs>
  <rect id="Rectangle_232" data-name="Rectangle 232" width="8.19" height="8.19" transform="translate(35.49 11.126)" fill="#dcdce6"/>
  <path id="Path_76" data-name="Path 76" d="M0,160.087H8.19V151.9H0Zm8.872,0h8.19V151.9H8.872Zm8.872,0h8.19V151.9h-8.19Zm8.872,0h8.19V151.9h-8.19Z" transform="translate(0 -140.771)" fill="#71cf16"/>
  <path id="Path_77" data-name="Path 77" d="M19.638,174.9l1.246-.316.52,1.6Zm2.866-2.073H20.312l-.674-2.065-.674,2.065H16.772l1.774,1.28-.674,2.064,1.774-1.28,1.092-.785Zm6.006,2.073,1.246-.316.52,1.6Zm2.867-2.073H29.185l-.674-2.065-.674,2.065H25.644l1.774,1.28-.674,2.064,1.774-1.28,1.092-.785Zm6.006,2.073,1.245-.316.52,1.6Zm2.866-2.073H38.057l-.674-2.065-.674,2.065H34.517l1.774,1.28-.674,2.064,1.774-1.28,1.092-.785Zm6.006,2.073,1.245-.316.52,1.6Zm2.866-2.073H46.93l-.674-2.065-.674,2.065H43.389l1.774,1.28-.674,2.064,1.774-1.28,1.092-.785Zm6.006,2.073,1.246-.316.52,1.6Zm2.866-2.073H55.8l-.674-2.065-.674,2.065H52.262l1.774,1.28-.674,2.064,1.774-1.28,1.092-.785Z" transform="translate(-15.543 -158.258)" fill="#fff"/>
  <g id="Group_240" data-name="Group 240">
    <g id="Group_239-2" data-name="Group 239" clip-path="url(#clip-path)">
      <path id="Path_78" data-name="Path 78" d="M2.814,0H8.762V1.107H6.42V7.349H5.136V1.107H2.8ZM8.507,2.028H9.6V3.057h.02a1.292,1.292,0,0,1,.206-.421,1.627,1.627,0,0,1,.363-.372,1.6,1.6,0,0,1,.47-.274,1.368,1.368,0,0,1,.519-.108c.137,0,.235.01.284.01a.857.857,0,0,0,.157.02V3.038A2,2,0,0,0,11.368,3a2.224,2.224,0,0,0-.255-.02,1.36,1.36,0,0,0-.559.118,1.416,1.416,0,0,0-.461.343,1.857,1.857,0,0,0-.313.568,2.4,2.4,0,0,0-.118.784V7.32H8.487Zm8.505,5.321H15.856V6.6h-.02a1.642,1.642,0,0,1-.647.647,1.707,1.707,0,0,1-.872.245A1.94,1.94,0,0,1,12.8,6.977a2.272,2.272,0,0,1-.47-1.568V2.028H13.5V5.291a1.39,1.39,0,0,0,.274.99.967.967,0,0,0,.755.294,1.445,1.445,0,0,0,.617-.118,1.064,1.064,0,0,0,.4-.3,1.191,1.191,0,0,0,.225-.461,2.176,2.176,0,0,0,.069-.578V2.028h1.176V7.349Zm2-1.7a.925.925,0,0,0,.392.725,1.543,1.543,0,0,0,.813.206,2.689,2.689,0,0,0,.372-.029,1.639,1.639,0,0,0,.392-.1.689.689,0,0,0,.3-.216.5.5,0,0,0,.108-.363.527.527,0,0,0-.167-.372,1.388,1.388,0,0,0-.392-.235,3.4,3.4,0,0,0-.549-.147c-.206-.039-.412-.088-.627-.137s-.431-.108-.637-.176a1.826,1.826,0,0,1-.549-.284,1.222,1.222,0,0,1-.382-.451,1.408,1.408,0,0,1-.147-.676,1.158,1.158,0,0,1,.216-.725,1.563,1.563,0,0,1,.539-.47,2.447,2.447,0,0,1,.725-.255,4.151,4.151,0,0,1,.755-.069,3.37,3.37,0,0,1,.784.088,1.98,1.98,0,0,1,.676.284,1.552,1.552,0,0,1,.5.51,1.764,1.764,0,0,1,.255.754H21.167a.754.754,0,0,0-.382-.568,1.579,1.579,0,0,0-.7-.147c-.078,0-.186.01-.294.02a1.735,1.735,0,0,0-.323.078.766.766,0,0,0-.255.167.392.392,0,0,0-.108.284.431.431,0,0,0,.147.343,1.332,1.332,0,0,0,.392.225,3.4,3.4,0,0,0,.549.147c.206.039.421.088.637.137s.421.108.627.176a1.716,1.716,0,0,1,.549.284A1.413,1.413,0,0,1,22.4,5.1a1.354,1.354,0,0,1,.147.657,1.428,1.428,0,0,1-.216.8,1.833,1.833,0,0,1-.559.539,2.771,2.771,0,0,1-.764.3,4.1,4.1,0,0,1-.833.1,3.508,3.508,0,0,1-.931-.118,2.371,2.371,0,0,1-.745-.343,1.645,1.645,0,0,1-.49-.578,1.888,1.888,0,0,1-.2-.823H19v.01Zm3.871-3.616h.892V.421h1.176v1.6h1.058v.872H24.949V5.732a3.009,3.009,0,0,0,.02.323.68.68,0,0,0,.069.225.383.383,0,0,0,.167.137.874.874,0,0,0,.314.049,2.044,2.044,0,0,0,.245-.01,2.118,2.118,0,0,0,.245-.039V7.33c-.127.02-.255.029-.382.039a2.43,2.43,0,0,1-.382.02A2.532,2.532,0,0,1,24.5,7.3a1.07,1.07,0,0,1-.441-.255.911.911,0,0,1-.216-.421,3.346,3.346,0,0,1-.069-.588V2.9h-.892V2.028Zm3.949,0h1.107v.725h.02a1.456,1.456,0,0,1,.686-.666,2.222,2.222,0,0,1,.96-.206,2.415,2.415,0,0,1,1.1.225,2.06,2.06,0,0,1,.774.608,2.534,2.534,0,0,1,.461.9,3.958,3.958,0,0,1,.02,2.136,2.884,2.884,0,0,1-.421.892,2.085,2.085,0,0,1-.715.617A2.115,2.115,0,0,1,29.8,7.5a2.993,2.993,0,0,1-.51-.049A2.169,2.169,0,0,1,28.8,7.3a1.755,1.755,0,0,1-.431-.265,1.493,1.493,0,0,1-.333-.372h-.02V9.319H26.841V2.028Zm4.106,2.665a2.387,2.387,0,0,0-.1-.7,1.774,1.774,0,0,0-.284-.6,1.568,1.568,0,0,0-.461-.421,1.253,1.253,0,0,0-.637-.157,1.3,1.3,0,0,0-1.117.51A2.321,2.321,0,0,0,27.967,4.7a2.536,2.536,0,0,0,.1.745,1.658,1.658,0,0,0,.294.588,1.4,1.4,0,0,0,.47.392,1.328,1.328,0,0,0,.637.147,1.3,1.3,0,0,0,.676-.167,1.578,1.578,0,0,0,.461-.421,1.725,1.725,0,0,0,.255-.6,3.365,3.365,0,0,0,.078-.7M33,0H34.18V1.107H33Zm0,2.028H34.18V7.349H33ZM35.228,0H36.4V7.349H35.228Zm4.762,7.5a2.8,2.8,0,0,1-1.137-.216,2.58,2.58,0,0,1-.843-.578,2.517,2.517,0,0,1-.519-.892,3.484,3.484,0,0,1-.186-1.127,3.183,3.183,0,0,1,.186-1.117,2.606,2.606,0,0,1,.519-.892,2.351,2.351,0,0,1,.843-.578,2.976,2.976,0,0,1,1.137-.216,2.8,2.8,0,0,1,1.137.216,2.439,2.439,0,0,1,.843.578,2.517,2.517,0,0,1,.519.892,3.422,3.422,0,0,1,.186,1.117,3.2,3.2,0,0,1-.186,1.127,2.774,2.774,0,0,1-.519.892,2.349,2.349,0,0,1-.843.578,2.938,2.938,0,0,1-1.137.216m0-.931a1.356,1.356,0,0,0,.676-.167,1.419,1.419,0,0,0,.47-.431,1.848,1.848,0,0,0,.274-.6,2.673,2.673,0,0,0,0-1.362,1.757,1.757,0,0,0-.274-.6,1.489,1.489,0,0,0-.47-.421,1.383,1.383,0,0,0-.676-.167,1.355,1.355,0,0,0-.676.167,1.5,1.5,0,0,0-.47.421,1.756,1.756,0,0,0-.274.6,2.671,2.671,0,0,0,0,1.362,1.756,1.756,0,0,0,.274.6,1.52,1.52,0,0,0,.47.431,1.283,1.283,0,0,0,.676.167m3.038-4.537h.892V.421H45.1v1.6h1.058v.872H45.1V5.732a3.008,3.008,0,0,0,.02.323.678.678,0,0,0,.069.225.383.383,0,0,0,.167.137.874.874,0,0,0,.314.049,2.046,2.046,0,0,0,.245-.01,2.118,2.118,0,0,0,.245-.039V7.33c-.127.02-.255.029-.382.039a2.431,2.431,0,0,1-.382.02,2.532,2.532,0,0,1-.745-.088,1.071,1.071,0,0,1-.441-.255.911.911,0,0,1-.216-.421,3.346,3.346,0,0,1-.069-.588V2.9h-.892V2.028Z" transform="translate(-2.599)" fill="#fff"/>
    </g>
  </g>
</svg>
