<svg xmlns="http://www.w3.org/2000/svg" xmlns:xlink="http://www.w3.org/1999/xlink" width="17.692" height="17.968" viewBox="0 0 17.692 17.968">
  <defs>
    <clipPath id="clip-path">
      <rect id="Rectangle_235" data-name="Rectangle 235" width="17.692" height="17.968" fill="#231f20"/>
    </clipPath>
  </defs>
  <g id="Group_242" data-name="Group 242" clip-path="url(#clip-path)">
    <path id="Path_79" data-name="Path 79" d="M5.307,17.968A1.619,1.619,0,1,1,6.443,15.2a1.543,1.543,0,0,1,.483,1.147,1.612,1.612,0,0,1-1.619,1.619m9,0A1.619,1.619,0,1,1,15.438,15.2a1.543,1.543,0,0,1,.483,1.147A1.612,1.612,0,0,1,14.3,17.968M4.138,3.126,6.612,8.253h6.477L15.9,3.126ZM3.463,1.777H16.709q.72,0,.911.439a1.049,1.049,0,0,1-.124.978L14.46,8.658a2.112,2.112,0,0,1-.63.663,1.506,1.506,0,0,1-.877.281H6.139L4.88,11.941H15.922v1.349H5.082a1.51,1.51,0,0,1-1.361-.63,1.294,1.294,0,0,1,.011-1.417L5.172,8.591,1.754,1.349H0V0H2.631ZM6.612,8.253,4.138,3.126H15.9L13.088,8.253Z" transform="translate(0 0)" fill="#231f20"/>
  </g>
</svg>
