<svg id="Group_54" data-name="Group 54" xmlns="http://www.w3.org/2000/svg" xmlns:xlink="http://www.w3.org/1999/xlink" width="17.967" height="17.97" viewBox="0 0 17.967 17.97">
  <defs>
    <clipPath id="clip-path">
      <rect id="Rectangle_41" data-name="Rectangle 41" width="17.967" height="17.97" fill="#231f20"/>
    </clipPath>
  </defs>
  <g id="Group_53" data-name="Group 53" clip-path="url(#clip-path)">
    <path id="Path_45" data-name="Path 45" d="M17.644,4.545c-.02-.144-.037-.29-.062-.433A4.946,4.946,0,0,0,16.9,2.351a8.019,8.019,0,0,0-.535-.769,1.6,1.6,0,0,0-.764-.524A5.679,5.679,0,0,0,14.117.751a.545.545,0,0,0-.531.267c-.092.146-.18.294-.263.445-.421.757-.838,1.516-1.263,2.272-.1.172-.224.327-.329.494a2.48,2.48,0,0,0-.176.334.572.572,0,0,0,.062.58,3.051,3.051,0,0,0,.582.609c.341.29.691.57,1.029.865A2.981,2.981,0,0,1,13.573,7a.447.447,0,0,1,.073.448A2.228,2.228,0,0,1,13.5,7.8a21.489,21.489,0,0,1-1.224,1.965,11.853,11.853,0,0,1-3.682,3.273c-.3.174-.6.345-.9.516l-.016.008a.609.609,0,0,1-.841-.126c-.285-.29-.544-.606-.809-.916a6.4,6.4,0,0,0-.748-.808.667.667,0,0,0-.869-.089.811.811,0,0,0-.1.055c-.8.565-1.677,1-2.525,1.478-.182.1-.372.192-.555.294a2.721,2.721,0,0,0-.271.182.484.484,0,0,0-.205.431,5.253,5.253,0,0,0,.3,1.531,1.673,1.673,0,0,0,.471.72,3.545,3.545,0,0,0,.376.3,5.867,5.867,0,0,0,1.887.9c.225.055.457.078.686.117l.084.015h.517a.332.332,0,0,1,.057-.014,4.628,4.628,0,0,0,1.139-.218c.52-.171,1.033-.363,1.55-.544a11.562,11.562,0,0,0,3.247-1.741,21.777,21.777,0,0,0,3.714-3.616A12.078,12.078,0,0,0,16.346,9.1c.318-.669.556-1.37.815-2.064a7.734,7.734,0,0,0,.423-1.5c.024-.15.04-.3.059-.451Z" transform="translate(-0.213 -0.214)" fill="#231f20"/>
  </g>
</svg>
