<svg id="Group_173" data-name="Group 173" xmlns="http://www.w3.org/2000/svg" xmlns:xlink="http://www.w3.org/1999/xlink" width="59.795" height="59.836" viewBox="0 0 59.795 59.836">
  <defs>
    <clipPath id="clip-path">
      <rect id="Rectangle_152" data-name="Rectangle 152" width="59.795" height="59.836" fill="#fff"/>
    </clipPath>
  </defs>
  <g id="Group_172" data-name="Group 172" clip-path="url(#clip-path)">
    <path id="Path_58" data-name="Path 58" d="M17.442,0A17.489,17.489,0,0,0,0,17.483V42.394A17.48,17.48,0,0,0,17.442,59.836H42.353A17.48,17.48,0,0,0,59.8,42.394V17.442A17.48,17.48,0,0,0,42.353,0ZM47.36,9.973a2.5,2.5,0,1,1-2.5,2.5,2.513,2.513,0,0,1,2.5-2.5M29.918,14.98A14.939,14.939,0,1,1,14.98,29.918,14.94,14.94,0,0,1,29.918,14.98m0,4.966a9.973,9.973,0,1,0,9.973,9.973,9.983,9.983,0,0,0-9.973-9.973" fill="#fff"/>
  </g>
</svg>
