<svg id="Group_487" data-name="Group 487" xmlns="http://www.w3.org/2000/svg" xmlns:xlink="http://www.w3.org/1999/xlink" width="80.305" height="14.961" viewBox="0 0 80.305 14.961">
  <defs>
    <clipPath id="clip-path">
      <rect id="Rectangle_403" data-name="Rectangle 403" width="80.305" height="14.961" fill="none"/>
    </clipPath>
  </defs>
  <path id="Path_127" data-name="Path 127" d="M819.041,51.316,813.554,62.64h-2.277l2.05-4.232L810.1,51.316h2.335l2.071,4.75,2.262-4.75Z" transform="translate(-755.275 -47.843)"/>
  <g id="Group_486" data-name="Group 486">
    <g id="Group_485" data-name="Group 485" clip-path="url(#clip-path)">
      <path id="Path_128" data-name="Path 128" d="M545.858,53.342a2.19,2.19,0,1,0-2.187,2.3,2.227,2.227,0,0,0,2.187-2.3m-6.369,7.3V49.322h1.978v1.045a3.185,3.185,0,0,1,2.541-1.19,3.956,3.956,0,0,1,3.876,4.149,4,4,0,0,1-3.924,4.165,3.111,3.111,0,0,1-2.429-1.077v4.232Z" transform="translate(-502.975 -45.849)"/>
      <path id="Path_129" data-name="Path 129" d="M680.674,53.342a2.19,2.19,0,1,0-2.187,2.3,2.2,2.2,0,0,0,2.187-2.3m.016,4.021V56.318a3.22,3.22,0,0,1-2.541,1.174,3.926,3.926,0,0,1-3.876-4.149,4,4,0,0,1,3.924-4.165,3.207,3.207,0,0,1,2.493,1.158V49.322h1.978v8.041Z" transform="translate(-628.637 -45.849)"/>
      <path id="Path_130" data-name="Path 130" d="M459.57,50.111a2.107,2.107,0,0,1,2.606-.751v2.051a2.552,2.552,0,0,0-1.428-.367,1.414,1.414,0,0,0-1.114,1.56v4.761h-2.042V49.323h1.978Z" transform="translate(-426.621 -45.85)"/>
      <path id="Path_131" data-name="Path 131" d="M953.377,3.019l-2.339-1.342L948.665.316a2.359,2.359,0,0,0-3.533,2.046v.306a.467.467,0,0,0,.234.4l1.1.632a.458.458,0,0,0,.686-.4V2.582a.466.466,0,0,1,.7-.4l2.168,1.244,2.162,1.24a.466.466,0,0,1,0,.809l-2.162,1.24-2.168,1.244a.466.466,0,0,1-.7-.4V7.192a2.359,2.359,0,0,0-3.533-2.046l-2.372,1.361-2.339,1.342a2.359,2.359,0,0,0,0,4.092l2.339,1.342,2.372,1.361a2.359,2.359,0,0,0,3.533-2.046v-.306a.467.467,0,0,0-.234-.4l-1.1-.632a.458.458,0,0,0-.686.4v.724a.466.466,0,0,1-.7.4l-2.168-1.244L940.1,10.3a.466.466,0,0,1,0-.809l2.162-1.24L944.434,7a.466.466,0,0,1,.7.4v.36a2.359,2.359,0,0,0,3.533,2.046l2.372-1.361,2.339-1.342a2.359,2.359,0,0,0,0-4.092" transform="translate(-874.257 0.001)"/>
      <path id="Path_132" data-name="Path 132" d="M8.244,54.358a4.042,4.042,0,0,1-4.082,3.118,4.154,4.154,0,1,1,.032-8.308,4.045,4.045,0,0,1,4.033,3.085H6.139A2.184,2.184,0,0,0,4.21,51.048a2.284,2.284,0,0,0,0,4.564,2.115,2.115,0,0,0,1.944-1.254Z" transform="translate(0 -45.84)"/>
      <rect id="Rectangle_402" data-name="Rectangle 402" width="2.025" height="11.341" transform="translate(9.186 0.167)"/>
      <path id="Path_133" data-name="Path 133" d="M181.565,53.86a2,2,0,0,0,2.073,1.864,2.129,2.129,0,0,0,1.9-1.045h2.073a4.194,4.194,0,0,1-8.147-1.334,4.154,4.154,0,1,1,8.308,0,2.655,2.655,0,0,1-.048.514Zm4.033-1.253a1.926,1.926,0,0,0-1.993-1.671,1.988,1.988,0,0,0-2.025,1.671Z" transform="translate(-167.314 -45.84)"/>
      <path id="Path_134" data-name="Path 134" d="M320.519,57.347V56.3a3.218,3.218,0,0,1-2.539,1.173,3.923,3.923,0,0,1-3.873-4.146,4,4,0,0,1,3.921-4.162,3.2,3.2,0,0,1,2.491,1.157V49.313H322.5v8.035ZM320.5,53.33a2.188,2.188,0,1,0-2.185,2.3,2.2,2.2,0,0,0,2.185-2.3" transform="translate(-292.847 -45.84)"/>
    </g>
  </g>
</svg>
