<svg id="Group_171" data-name="Group 171" xmlns="http://www.w3.org/2000/svg" xmlns:xlink="http://www.w3.org/1999/xlink" width="65.5" height="65.418" viewBox="0 0 65.5 65.418">
  <defs>
    <clipPath id="clip-path">
      <rect id="Rectangle_151" data-name="Rectangle 151" width="65.5" height="65.418" fill="#fff"/>
    </clipPath>
  </defs>
  <g id="Group_170" data-name="Group 170" clip-path="url(#clip-path)">
    <path id="Path_57" data-name="Path 57" d="M32.75,0A32.749,32.749,0,0,0,20.807,63.242a31.469,31.469,0,0,1,.123-9.4c.575-2.544,3.858-16.293,3.858-16.293a11.777,11.777,0,0,1-.985-4.843c0-4.555,2.627-7.962,5.91-7.962,2.791,0,4.145,2.093,4.145,4.6,0,2.791-1.806,7.018-2.709,10.917a4.753,4.753,0,0,0,4.843,5.91c5.828,0,10.3-6.115,10.3-14.98,0-7.839-5.622-13.338-13.666-13.338-9.316,0-14.774,6.977-14.774,14.2a12.67,12.67,0,0,0,2.421,7.469,1.054,1.054,0,0,1,.246.944c-.246,1.026-.78,3.242-.9,3.694-.123.616-.492.739-1.108.451-4.1-1.888-6.648-7.88-6.648-12.681,0-10.342,7.51-19.822,21.628-19.822,11.368,0,20.192,8.085,20.192,18.919,0,11.286-7.1,20.356-16.991,20.356-3.324,0-6.443-1.724-7.51-3.776l-2.052,7.8a37.638,37.638,0,0,1-4.063,8.577A32.727,32.727,0,1,0,32.75,0" fill="#fff"/>
  </g>
</svg>
