<?xml version="1.0" encoding="utf-8"?>
<!-- Generator: Adobe Illustrator 25.0.0, SVG Export Plug-In . SVG Version: 6.00 Build 0)  -->
<svg version="1.1" id="Layer_1" xmlns="http://www.w3.org/2000/svg" xmlns:xlink="http://www.w3.org/1999/xlink" x="0px" y="0px"
	 viewBox="0 0 1050.27 977.52" style="enable-background:new 0 0 1050.27 977.52;" xml:space="preserve">
<path d="M957.95,124.87C905.79,63.85,831.09,26.7,747.62,20.29c-80.84-5.82-159.04,17.23-222.75,66.11
	C402.72-9.96,225.26-2.3,113.1,107.12C-0.41,217.93-11.03,402.14,88.03,525.25c52.62,75.46,111.83,147.17,175.95,213.19
	c75.72,77.94,159.26,148.98,248.34,211.08l12.56,8.77l12.42-8.97c83.94-60.58,163.27-128.76,235.78-202.63
	c64.33-65.59,124.17-136.59,176.57-209.43C1053.5,418.11,1057.08,240.82,957.95,124.87z"/>
</svg>
