<?xml version="1.0" encoding="utf-8"?>
<!-- Generator: Adobe Illustrator 27.2.0, SVG Export Plug-In . SVG Version: 6.00 Build 0)  -->
<svg version="1.1" id="Layer_1" xmlns="http://www.w3.org/2000/svg" xmlns:xlink="http://www.w3.org/1999/xlink" x="0px" y="0px"
	 viewBox="0 0 51 51" style="enable-background:new 0 0 51 51;" xml:space="preserve">
<style type="text/css">
	.st0{fill:#231F20;}
	.st1{fill:#FFFFFF;}
</style>
<rect x="-0.1" y="13.5" class="st0" width="51" height="24.8"/>
<g>
	<g>
		<path class="st1" d="M19.7,30.5v-0.3l1.1-0.5v-8.1l-1.1-0.5v-0.3H22l5.2,7.2v-6.5L26,21.1v-0.3h2.6v0.3l-1.1,0.5v8.9h-0.3l-6-8.4
			v7.7l1.2,0.5v0.3H19.7z"/>
		<path class="st1" d="M31.1,30.2c-0.5-0.3-0.9-0.6-1.1-1.1c-0.3-0.5-0.4-1.1-0.4-1.7s0.1-1.2,0.4-1.7c0.3-0.5,0.6-0.9,1.1-1.1
			s1-0.4,1.6-0.4c0.5,0,1,0.1,1.4,0.3c0.4,0.2,0.7,0.5,0.9,0.9c0.2,0.4,0.3,0.9,0.3,1.4h-4.4V28c0,0.7,0.2,1.3,0.5,1.7
			c0.3,0.4,0.8,0.7,1.4,0.7c0.6,0,1-0.2,1.5-0.5c0.4-0.3,0.7-0.7,0.8-1.2h0.3c-0.1,0.6-0.4,1.1-0.9,1.4c-0.5,0.4-1,0.5-1.7,0.5
			C32.1,30.6,31.6,30.5,31.1,30.2z M33.9,26.5c0-0.7-0.1-1.2-0.3-1.6c-0.2-0.3-0.6-0.5-1-0.5c-0.5,0-1,0.2-1.2,0.6s-0.5,0.9-0.5,1.5
			H33.9z"/>
		<path class="st1" d="M38.8,30.7l-2.6-6.1l-0.8-0.1v-0.2h2.7v0.2l-0.6,0.2l1.8,4.5l1.1-2.9l-0.7-1.6l-0.6-0.1v-0.2h2.8v0.2
			l-0.9,0.2l1.8,4.5l1.6-4.3l-1-0.3v-0.2h2.1v0.2l-0.7,0.3l-2.2,5.9h-0.3l-1.7-4.1l-1.5,4.1H38.8z"/>
	</g>
	<g>
		<polygon class="st1" points="9.2,23.9 8.5,26.9 5.3,27.7 8.5,28.6 9.2,31.5 9.8,28.6 13,27.7 9.8,26.9 		"/>
		<polygon class="st1" points="14.3,23.2 13.9,24.9 12,25.3 13.9,25.8 14.3,27.5 14.7,25.8 16.5,25.3 14.7,24.9 		"/>
		<polygon class="st1" points="11.3,20.4 11,21.8 9.5,22.1 11,22.5 11.3,23.8 11.6,22.5 13,22.1 11.6,21.8 		"/>
	</g>
</g>
</svg>
